<?xml version="1.0" encoding="UTF-8" standalone="no"?>
<!-- Created with Inkscape (http://www.inkscape.org/) -->

<svg
   width="112.34415mm"
   height="24.993601mm"
   viewBox="0 0 112.34415 24.993601"
   version="1.1"
   id="svg1"
   xmlns:inkscape="http://www.inkscape.org/namespaces/inkscape"
   xmlns:sodipodi="http://sodipodi.sourceforge.net/DTD/sodipodi-0.dtd"
   xmlns="http://www.w3.org/2000/svg"
   xmlns:svg="http://www.w3.org/2000/svg">
  <sodipodi:namedview
     id="namedview1"
     pagecolor="#ffffff"
     bordercolor="#000000"
     borderopacity="0.25"
     inkscape:showpageshadow="2"
     inkscape:pageopacity="0.0"
     inkscape:pagecheckerboard="0"
     inkscape:deskcolor="#d1d1d1"
     inkscape:document-units="mm" />
  <defs
     id="defs1" />
  <g
     inkscape:label="Vrstva 1"
     inkscape:groupmode="layer"
     id="layer1"
     transform="translate(-3.4962626,-4.1116289)">
    <path
       d="m 8.2206627,19.097629 c -0.1524,-0.5842 -1.143,-0.6096 -1.2954,-0.6096 -1.9558,0 -3.429,1.8034 -3.429,3.5814 0,0.6858 0.2032,1.3462 0.7366,1.905 0.889,0.9652 2.3622,1.397 3.8354,1.397 1.6255999,0 3.4290003,-0.5334 4.3942003,-1.3716 1.8796,-1.6002 2.8448,-4.0386 2.8448,-6.8072 0,-2.5654 -0.2032,-4.953 -0.2032,-7.3406001 0,-2.1335999 0.1524,-4.0893999 0.762,-4.9783999 0.0254,-0.0508 0.0508,-0.0762 0.0508,-0.127 0,-0.3556 -1.0922,-0.6096 -2.2098,-0.6096 -0.889,0 -1.8288,0.1778 -2.413,0.635 -0.762,0.5842 -1.9558004,1.905 -2.9464003,3.6575999 -0.9144,1.6256001 -1.651,3.4290001 -1.651,5.1562001 0,2.032 1.1684,3.302 2.2605999,3.9878 0.5334,-0.2286 1.7272004,-1.1684 1.7272004,-2.0828 0,-0.1524 -0.0254,-0.2794 -0.1016,-0.4318 -0.5588,-1.1176 -1.3970004,-1.8542 -1.3970004,-3.0226 0,-2.4384001 1.8034004,-4.6736 3.2766004,-6.223 -0.2794,1.5748 -0.3556,3.0479999 -0.3556,4.3942 0,1.0414 0.0254,2.1336 0.0508,3.175 0.0254,0.8636 0.0508,1.9558 0.0508,2.6924 0,0.4826 0,0.9652 -0.0254,1.3462 -0.1524,2.54 -0.5334,4.826 -1.8542,5.715 -0.4826004,0.3302 -1.1176004,0.4826 -1.6002003,0.4826 -1.3462,0 -2.5908,-0.9906 -2.5908,-2.2098 0,-0.9652 0.6096,-1.9558 2.0828,-2.3114 z m 18.9992043,3.556 c -0.7366,0 -0.762,-1.1176 -0.762,-1.9304 0,-1.0668 0.1524,-2.286 0.1778,-2.7178 0.0762,-0.9144 0.1778,-1.9558 0.1778,-2.8702 0,-0.6096 -0.0508,-1.1684 -0.1778,-1.6002 -0.3302,-1.0668 -1.6764,-2.0066 -2.921,-2.0066 -0.4572,0 -0.889,0.127 -1.27,0.4064 -0.508,0.3556 -1.0668,1.5494 -1.6002,2.8448 -0.635,1.5494 -1.0668,3.2004 -1.1938,3.683 0,0.0508 -0.0254,0.0762 -0.0254,0.1016 0,-0.889 0.254,-2.5146 0.254,-3.9116 0,-0.6604 -0.0254,-1.27 -0.1778,-1.6002 -0.4064,-0.9398 -1.2446,-1.4478 -2.0066,-1.4478 -0.1524,0 -0.3048,0.0254 -0.4318,0.0508 0.0508,0.3556 0.0762,0.7874 0.0762,1.3208 0,1.0922 -0.127,2.5654 -0.2286,3.9624 -0.1016,1.143 -0.2032,2.4384 -0.2032,3.2512 0,0.4318 0.0254,0.8636 0.1016,1.2954 0.2794,1.7272 1.524,2.8448 2.1082,2.8448 0.1778,0 0.3048,-0.1016 0.3048,-0.3556 v -0.1778 c 0,-0.762 0.7366,-3.4544 1.6002,-5.8674 0.4572,-1.3462 0.9906,-2.6162 1.4478,-3.4544 0.3556,-0.635 0.6858,-1.016 0.9144,-1.016 0.4318,0 0.5588,0.5334 0.5588,1.27 0,0.6604 -0.1016,1.4732 -0.1524,2.159 -0.0762,0.9652 -0.1778,1.9558 -0.1778,2.8956 0,0.7366 0.0762,1.4732 0.2794,2.159 0.6604,2.032 2.4892,2.3876 3.2004,2.3876 0.4064,0 0.9144,-0.2286 1.397,-0.6096 0.7366,-0.5588 1.3208,-1.397 1.5748,-2.1082 0.0762,-0.2032 0.127,-0.4318 0.127,-0.5842 0,-0.635 -0.4064,-0.9906 -0.7112,-1.0414 -0.127,0.7874 -0.7366,1.7272 -1.3716,2.2606 -0.3048,0.254 -0.6096,0.4064 -0.889,0.4064 z m 3.936997,-11.1252 c -0.0762,0.2286 -0.1016,0.4572 -0.1016,0.7112 0,0.3048 0.0508,0.635 0.127,0.9652 -0.2286,1.143 -0.5588,2.3368 -0.9144,3.4544 -0.3302,1.0668 -0.7112,2.0066 -1.0668,2.794 -0.0762,-0.0762 -0.127,-0.1524 -0.1524,-0.2032 -0.7112,0.254 -0.9398,0.9144 -0.9398,1.6002 0,0.4064 0.0762,0.8128 0.254,1.1684 1.0414,2.0828 3.937,2.6924 6.0198,2.6924 1.27,0 3.2258,-0.5842 4.4958,-1.6002 0.6604,-0.5334 1.1938,-1.1938 1.1938,-2.1082 0,-0.7112 -0.4318,-0.9144 -0.7112,-1.016 -0.2794,0.7366 -0.6858,1.3716 -1.3716,1.9304 -0.7366,0.5842 -1.1176,0.7874 -1.6764,1.1176 0.635,-1.2192 0.8382,-2.159 0.8382,-2.8702 0,-1.8542 -0.8382,-3.2766 -1.6002,-4.8006 0,0 -0.5588,-1.0668 -1.016,-1.905 -0.127,-0.2286 -0.1778,-0.4572 -0.1778,-0.6858 0,-0.3556 0.127,-0.762 0.3302,-1.016 0.254,-0.3302 0.8636,-0.4064 0.8636,-0.7366 0,-0.2032 -0.254,-0.4064 -0.6096,-0.508 -0.5334,-0.1524 -1.2446,-0.2286 -1.4224,-0.2286 -1.0922,0 -2.0574,0.381 -2.3622,1.2446 z m 0.2794,6.604 c 0.2794,-0.8128 0.5334,-1.651 0.762,-2.4638 0.4318,0.7874 0.8128,1.6002 1.143,2.4384 0.3048,0.762 0.7874,2.2098 0.7874,3.302 0,0.6096 -0.1524,1.1176 -0.5842,1.3462 -0.1524,0.0762 -0.3048,0.1016 -0.4826,0.1016 -1.0922,0 -2.7686,-1.0922 -2.8956,-1.6256 0.2286,-0.7366 0.8636,-1.9304 1.27,-3.0988 z m 10.921978,6.1468 c 1.5494,0 2.9718,-0.8128 3.6068,-2.5146 0.127,-0.3302 0.1524,-0.5842 0.1524,-0.7874 0,-0.7112 -0.4318,-1.0414 -0.7112,-1.0668 -0.254,1.4732 -1.524,2.8448 -2.54,2.8448 -0.2286,0 -0.4318,-0.0508 -0.6096,-0.2032 -0.4572,-0.3556 -0.6604,-1.5748 -0.6604,-3.2258 0,-1.4478 0.127,-3.2004 0.3556,-5.2324 0.1016,-0.508 0.1778,-1.0414 0.2286,-1.5494 0.5842,-0.0254 1.1176,-0.0762 1.4986,-0.1524 0.8636,-0.1524 1.1684,-0.4572 1.1684,-0.8636 0,-0.127 -0.0254,-0.2794 -0.0762,-0.4064 -0.2794,0.0508 -0.6858,0.0762 -1.1684,0.0762 -0.4064,0 -0.8382,-0.0254 -1.3208,-0.0254 0.0254,-0.4572 0.0254,-0.8636 0.0254,-1.2446001 0,-0.6858 -0.0254,-1.143 -0.0762,-1.3462 -0.4064,-1.7017999 -1.346199,-2.4129999 -2.082799,-2.4129999 -0.254,0 -0.4826,0.0762 -0.635,0.2286 -0.254,0.7874 -0.254,1.524 -0.254,2.7431999 0,0.8382 0,1.3970001 -0.0254,2.0828001 -0.6858,0.0254 -1.27,0.0762 -1.6256,0.1778 -0.1524,0.0508 -0.2032,0.2286 -0.2032,0.4318 0,0.3048 0.1016,0.635 0.1016,0.635 0.127,0 0.8128,0.0508 1.7018,0.0762 -0.0254,0.3302 -0.0508,0.762 -0.0508,1.0414 -0.1016,2.032 -0.1778,4.0132 -0.1778,5.5372 0,1.2954 0.0508,2.2098 0.2286,2.7178 0.4572,1.3208 1.3208,2.4384 3.149599,2.4384 z m 12.826987,-1.7272 c -0.381,-0.1778 -0.508,-1.0922 -0.508,-2.286 0,-1.4732 0.1778,-3.429 0.3302,-4.8768 0.0762,-0.762 0.127,-1.397 0.127,-1.651 -0.0254,-1.1176 -1.4478,-2.032 -2.2352,-2.032 -0.2794,0 -0.4572,0.127 -0.4826,0.381 -0.0254,0.381 -0.0508,0.635 -0.1016,0.9144 -0.762,-1.0922 -1.9812,-1.7018 -3.2258,-1.7018 -0.4572,0 -0.9144,0.0762 -1.3462,0.254 -2.1082,0.8382 -3.1496,3.9624 -3.1496,6.5532 v 0.2794 c 0.0508,1.6256 0.508,3.175 1.1938,4.2418 0.6096,0.9652 1.4478,1.5494 2.3114,1.5494 0.2032,0 0.4318,-0.0254 0.6604,-0.1016 1.6002,-0.5588 2.8194,-4.1402 3.175,-5.3594 0,0.1016 -0.0254,0.2032 -0.0254,0.3048 -0.0254,0.4064 -0.0508,0.7366 -0.0508,1.0668 0,0.635 0.0762,1.27 0.3048,2.286 0.1016,0.4318 0.4318,0.8382 0.8382,1.143 0.5334,0.4064 1.397,0.7366 2.0066,0.7366 1.5748,0 2.8448,-1.3716 3.2766,-2.6416 0.0508,-0.2032 0.0762,-0.381 0.0762,-0.5588 0,-0.6604 -0.3556,-0.9906 -0.635,-1.0668 -0.2286,0.8636 -1.27,2.667 -2.1844,2.667 -0.127,0 -0.2286,-0.0508 -0.3556,-0.1016 z m -6.604,-0.6096 c -0.381,0 -0.7366,-1.2192 -0.7366,-2.5146 0,-2.0828 0.6096,-5.0038 1.651,-6.096 0.3048,-0.3048 0.6096,-0.4318 0.889,-0.4318 0.8382,0 1.4986,1.143 1.5748,1.9558 -0.4572,2.0574 -1.27,4.3942 -2.0828,5.7912 -0.4572,0.7874 -0.9144,1.2954 -1.2954,1.2954 z m 13.334979,2.667 c 0.635,0.0508 1.2954,0.0508 1.905,0.0508 1.1176,0 2.4892,-0.2032 3.2258,-0.5334 0.9906,-0.4318 2.1082,-1.1938 2.3876,-2.6416 0.0254,-0.1778 0.0508,-0.3302 0.0508,-0.4572 0,-0.635 -0.3302,-0.9398 -0.635,-0.9906 -0.1016,0.4826 -0.4064,1.1684 -0.9652,1.778 -0.762,0.8382 -1.7526,1.143 -2.7686,1.27 1.0414,-1.5494 1.3716,-3.8608 1.3716,-5.461 0,-2.5654 -0.7112,-5.207 -2.5146,-5.7912 -0.4064,-0.127 -0.762,-0.1778 -1.1176,-0.1778 -1.3462,0 -2.286,0.889 -2.8702,2.0066 -0.0508,-0.4572 -0.1778,-0.8636 -0.508,-1.27 -0.4064,-0.508 -1.0668,-0.762 -1.6256,-0.762 -0.1778,0 -0.3302,0.0254 -0.4826,0.0762 0,1.9812 -0.2032,5.9182 -0.3048,8.255 -0.0762,1.651 -0.1524,3.3274 -0.1524,4.7244 0,1.1938 0.0762,2.2098 0.2286,2.8448 0.254,1.016 1.2446,1.5748 2.032,1.5748 0.1524,0 0.3302,-0.0254 0.4572,-0.0762 -0.1016,-0.4572 -0.1524,-1.1938 -0.1524,-2.0574 0,-1.0922 0.0254,-2.2606 0.0508,-3.3528 0.5334,0.4572 1.27,0.889 2.3876,0.9906 z m -2.2098,-4.572 0.2032,-2.921 c 0.2794,-2.0066 1.3716,-3.9624 2.4384,-3.9624 0.9906,0 1.016,1.4986 1.016,2.1844 0,1.7526 -0.2286,3.4544 -0.6096,5.0546 -0.2286,0.9906 -0.508,1.905 -0.8382,2.159 -0.3048,0.2286 -0.6096,0.3302 -0.9144,0.3302 -0.4826,0 -0.9906,-0.254 -1.4224,-0.5588 0.0508,-0.8382 0.0762,-1.6256 0.127,-2.286 z m 21.158195,-2.413 c 0.381,-0.4572 0.5334,-0.9906 0.5334,-1.3208 0,-0.5842 -0.4064,-0.9906 -0.7366,-1.1938 -0.2286,0.6604 -0.7112,1.1684 -1.3208,1.524 -0.508,0.3048 -1.1176,0.5334 -1.7526,0.6604 -0.0508,-1.1684 -0.254,-2.3368 -0.5588,-3.302 -0.4064,-1.1938 -1.2446,-2.1082 -2.5146,-2.5908 -0.5334,-0.2032 -1.1176,-0.3302 -1.6764,-0.3302 -0.4572,0 -0.889,0.0762 -1.2954,0.2794 -0.4826,0.0254 -0.9906,0.2032 -1.4986,0.6096 -1.27,0.9398 -2.0066,3.2004 -2.0066,5.5626 0,1.524 0.3048,3.1496 1.0414,4.445 0.762,1.397 2.7432,2.3114 4.445,2.3114 0.6604,0 1.2954,-0.1524 1.778,-0.4572 1.3716,-0.8636 1.9558,-2.667 2.1844,-4.6228 1.4478,-0.2032 2.6162,-0.6858 3.3782,-1.5748 z m -7.7724,-1.0922 c -0.6858,-0.6858 -1.1176,-1.4986 -1.1176,-2.2606 0,-0.4064 0.127,-0.7874 0.4064,-1.1176 0.2032,-0.2032 0.4318,-0.3048 0.6858,-0.3048 0.7112,0 1.6002,0.7112 2.0066,1.7272 0.2032,0.5334 0.3048,1.27 0.3048,1.9812 0,0.3048 -0.0254,0.6096 -0.0508,0.8636 -0.7366,-0.0254 -1.651,-0.3302 -2.2352,-0.889 z m -1.778,1.2192 c 0.5588,0.4318 1.143,0.762 1.778,0.9906 0.635,0.2286 1.2954,0.381 1.9558,0.4826 -0.1778,0.8128 -0.4064,1.6002 -0.6858,2.2098 -0.2794,0.6096 -0.5842,1.016 -0.889,1.143 -0.1016,0.0508 -0.2032,0.0762 -0.3048,0.0762 -0.5842,0 -1.1176,-0.762 -1.4478,-1.905 -0.254,-0.8382 -0.4064,-1.8796 -0.4064,-2.9972 z m 10.642605,-4.445 c -0.2286,-1.1176 -1.5748,-1.6764 -2.5146,-1.6764 h -0.127 c 0.0254,0.1778 0.0254,0.381 0.0254,0.5842 0,0.5334 -0.0508,1.2192 -0.127,1.9558 0,0.1016 -0.0254,0.2286 -0.0254,0.3302 -0.1016,1.1684 -0.1778,2.4638 -0.1778,3.6576 0,0.7874 0,1.5494 0.1524,2.2606 0.3302,1.5748 1.6002,3.4798 3.302,3.4798 0.254,0 0.5334,-0.0508 0.8128,-0.1524 0.4572,-0.1524 0.8128,-0.635 1.1684,-1.3716 0.8636,-1.7018 1.524,-4.5212 1.9558,-5.969 -0.1524,0.8128 -0.3048,2.3876 -0.3048,3.5814 0,0.762 0.127,1.6002 0.3556,2.3114 0.4826,1.3716 1.6002,1.9304 2.667,1.9304 0.4318,0 0.8636,-0.1016 1.2192,-0.254 1.0922,-0.4826 2.1336,-2.159 2.1336,-2.9718 0,-0.762 -0.508,-1.016 -0.762,-1.016 -0.0508,0.2286 -0.3556,0.8382 -0.7874,1.4478 -0.4318,0.6096 -1.016,1.1938 -1.4732,1.1938 -0.7874,0 -0.7874,-1.4224 -0.7874,-2.0574 0,-0.7874 0.0508,-1.6764 0.1524,-2.7686 0.0762,-1.016 0.1778,-2.1844 0.1778,-3.175 0,-0.9652 -0.6604,-1.8034 -1.3462,-2.3368 -0.4826,-0.381 -0.9906,-0.6096 -1.2954,-0.6096 -0.1778,0 -0.2794,0.0508 -0.3048,0.2032 -0.0762,0.4064 -0.254,1.1684 -0.4318,1.9558 -0.635,2.6924 -1.7526,6.9088 -2.54,7.5184 -0.127,0.1016 -0.2286,0.1524 -0.3556,0.1524 -0.3302,0 -0.635,-0.3556 -0.8128,-1.0922 -0.0508,-0.1778 -0.0508,-0.4826 -0.0508,-0.8636 0,-1.2954 0.1778,-3.5052 0.2032,-4.572 0,-0.6858 -0.0254,-1.27 -0.1016,-1.6764 z m 19.329412,9.3472 c -0.7366,0 -0.762,-1.1176 -0.762,-1.9304 0,-1.0668 0.1524,-2.286 0.1778,-2.7178 0.0762,-0.9144 0.1778,-1.9558 0.1778,-2.8702 0,-0.6096 -0.0508,-1.1684 -0.1778,-1.6002 -0.3302,-1.0668 -1.676395,-2.0066 -2.920995,-2.0066 -0.4572,0 -0.889,0.127 -1.27,0.4064 -0.508,0.3556 -1.0668,1.5494 -1.6002,2.8448 -0.635,1.5494 -1.0668,3.2004 -1.1938,3.683 0,0.0508 -0.0254,0.0762 -0.0254,0.1016 0,-0.889 0.254,-2.5146 0.254,-3.9116 0,-0.6604 -0.0254,-1.27 -0.1778,-1.6002 -0.4064,-0.9398 -1.2446,-1.4478 -2.0066,-1.4478 -0.1524,0 -0.3048,0.0254 -0.4318,0.0508 0.0508,0.3556 0.0762,0.7874 0.0762,1.3208 0,1.0922 -0.127,2.5654 -0.2286,3.9624 -0.1016,1.143 -0.2032,2.4384 -0.2032,3.2512 0,0.4318 0.0254,0.8636 0.1016,1.2954 0.2794,1.7272 1.524,2.8448 2.1082,2.8448 0.1778,0 0.3048,-0.1016 0.3048,-0.3556 v -0.1778 c 0,-0.762 0.7366,-3.4544 1.6002,-5.8674 0.4572,-1.3462 0.9906,-2.6162 1.4478,-3.4544 0.3556,-0.635 0.6858,-1.016 0.9144,-1.016 0.4318,0 0.5588,0.5334 0.5588,1.27 0,0.6604 -0.1016,1.4732 -0.1524,2.159 -0.0762,0.9652 -0.1778,1.9558 -0.1778,2.8956 0,0.7366 0.0762,1.4732 0.2794,2.159 0.6604,2.032 2.489195,2.3876 3.200395,2.3876 0.4064,0 0.9144,-0.2286 1.397,-0.6096 0.7366,-0.5588 1.3208,-1.397 1.5748,-2.1082 0.0762,-0.2032 0.127,-0.4318 0.127,-0.5842 0,-0.635 -0.4064,-0.9906 -0.7112,-1.0414 -0.127,0.7874 -0.7366,1.7272 -1.3716,2.2606 -0.3048,0.254 -0.6096,0.4064 -0.889,0.4064 z m 7.8994,-2.413 c 0.0762,0.508 0.3048,1.905 0.5842,2.4892 0.6096,1.2446 1.778,1.7272 2.4384,1.7272 0.7874,0 1.5494,-0.3302 2.159,-0.8382 0.7112,-0.5842 1.2192,-1.397 1.4224,-2.2098 0.0508,-0.1524 0.0508,-0.3302 0.0508,-0.4572 0,-0.635 -0.381,-0.9398 -0.6858,-0.9906 -0.1016,0.4572 -0.381,1.0922 -0.7366,1.5748 -0.3302,0.4318 -0.7112,0.7874 -1.143,0.7874 -0.1524,0 -0.2794,-0.0508 -0.4318,-0.127 -0.4064,-0.2286 -0.6858,-1.3716 -0.7874,-3.0988 -0.0254,-0.5588 -0.0508,-1.1176 -0.0508,-1.6764 0,-1.1684 0.0762,-2.3114 0.1524,-3.4544 0.4064,-1.1176 1.6256,-4.5974001 1.6256,-6.7564 0,-1.0668 -0.4826,-1.8796 -1.1176,-2.3876 -0.5842,-0.4572 -1.27,-0.7112 -1.905,-0.7112 -0.635,0 -1.1684,0.2794 -1.3462,0.8128 -0.4318,1.1938 -0.5334,3.7591999 -0.5334,6.5532 v 0.2286 c -0.4826,-0.2032 -1.016,-0.3048 -1.5748,-0.3048 -1.2954,0 -2.3114,0.4826 -3.0226,1.4986 -1.0922,1.5494 -1.5748,3.5306 -1.5748,5.4102 0,0.762 0.0762,1.524 0.2286,2.2352 0.254,1.143 0.6858,2.0066 1.1938,2.6162 0.6604,0.762 1.4478,1.1176 2.0828,1.1176 0.1778,0 0.3556,-0.0254 0.508,-0.0762 0.9398,-0.3556 1.905,-2.6416 2.4638,-3.9624 z m -2.5908,1.6256 c -0.5842,0 -0.8636,-1.27 -0.8636,-2.7178 0,-2.0066 0.508,-4.699 1.6256,-5.6896 0.4318,-0.4064 0.8636,-0.5334 1.2192,-0.5334 0.1016,0 0.2032,0 0.3048,0.0254 0.0254,1.8542 0.0762,3.556 0.127,4.5212 -0.381,1.0922 -0.7874,2.0828 -1.1684,2.8702 -0.4572,0.9398 -0.8636,1.524 -1.2446,1.524 z m 4.572,-10.0838 c -0.0762,-0.762 -0.2032,-1.4986 -0.2032,-2.5908001 0,-1.1176 0.1524,-2.2351999 0.6096,-2.2859999 0.508,0 0.5588,0.5842 0.5588,0.9398 0,0.5841999 -0.2032,1.4985999 -0.4318,2.286 -0.254,0.889 -0.5334,1.651 -0.5334,1.651 z"
       id="text1"
       style="font-size:25.4px;font-family:'FONTSPRING DEMO - Blue Vinyl';-inkscape-font-specification:'FONTSPRING DEMO - Blue Vinyl';stroke-width:0.4;stroke-linecap:round;stroke-linejoin:round"
       aria-label="Instapound" />
  </g>
</svg>
